name C:/MyDriveSym/Projects/mobilecap/Data\Session20210823_0002\mocap\ForceDataProcessed\walkingTS2_forces.mot
datacolumns 19
datarows 14
range 0.31950000 0.32600000
endheader 
time	R_ground_force_vx	R_ground_force_vy	R_ground_force_vz	R_ground_force_px	R_ground_force_py	R_ground_force_pz	R_ground_torque_x	R_ground_torque_y	R_ground_torque_z	L_ground_force_vx	L_ground_force_vy	L_ground_force_vz	L_ground_force_px	L_ground_force_py	L_ground_force_pz	L_ground_torque_x	L_ground_torque_y	L_ground_torque_z	
          0.31950000	         11.17898700	        522.38561900	        -53.35568400	          0.28024000	          0.00600000	         -0.13824400	          0.00000000	         -1.82646500	          0.00000000	          0.00000000	          0.00000000	          0.00000000	          0.63659800	          0.00000000	         -0.32331900	          0.00000000	          0.00000000	          0.00000000	
          0.32000000	         11.37451500	        523.12911200	        -53.33154000	          0.28037400	          0.00600000	         -0.13832900	          0.00000000	         -1.83791900	          0.00000000	          0.00000000	          0.00000000	          0.00000000	          0.63659800	          0.00000000	         -0.32331900	          0.00000000	          0.00000000	          0.00000000	
          0.32050000	         11.57100300	        523.87602000	        -53.30702300	          0.28050700	          0.00600000	         -0.13841500	          0.00000000	         -1.84937000	          0.00000000	          0.00000000	          0.00000000	          0.00000000	          0.63659800	          0.00000000	         -0.32331900	          0.00000000	          0.00000000	          0.00000000	
          0.32100000	         11.76845800	        524.62629000	        -53.28213300	          0.28064100	          0.00600000	         -0.13850100	          0.00000000	         -1.86081800	          0.00000000	          0.00000000	          0.00000000	          0.00000000	          0.63659800	          0.00000000	         -0.32331900	          0.00000000	          0.00000000	          0.00000000	
          0.32150000	         11.96688600	        525.37986900	        -53.25687100	          0.28077300	          0.00600000	         -0.13858600	          0.00000000	         -1.87226100	          0.00000000	          0.00000000	          0.00000000	          0.00000000	          0.63659800	          0.00000000	         -0.32331900	          0.00000000	          0.00000000	          0.00000000	
          0.32200000	         12.16629600	        526.13670400	        -53.23123800	          0.28090600	          0.00600000	         -0.13867200	          0.00000000	         -1.88369700	          0.00000000	          0.00000000	          0.00000000	          0.00000000	          0.63659800	          0.00000000	         -0.32331900	          0.00000000	          0.00000000	          0.00000000	
          0.32250000	         12.36669200	        526.89674000	        -53.20523700	          0.28103800	          0.00600000	         -0.13875800	          0.00000000	         -1.89512600	          0.00000000	          0.00000000	          0.00000000	          0.00000000	          0.63659800	          0.00000000	         -0.32331900	          0.00000000	          0.00000000	          0.00000000	
          0.32300000	         12.56808300	        527.65992300	        -53.17886700	          0.28117000	          0.00600000	         -0.13884400	          0.00000000	         -1.90654600	          0.00000000	          0.00000000	          0.00000000	          0.00000000	          0.63659800	          0.00000000	         -0.32331900	          0.00000000	          0.00000000	          0.00000000	
          0.32350000	         12.77047400	        528.42619800	        -53.15213100	          0.28130200	          0.00600000	         -0.13893000	          0.00000000	         -1.91795600	          0.00000000	          0.00000000	          0.00000000	          0.00000000	          0.63659800	          0.00000000	         -0.32331900	          0.00000000	          0.00000000	          0.00000000	
          0.32400000	         12.97387200	        529.19550900	        -53.12503000	          0.28143300	          0.00600000	         -0.13901600	          0.00000000	         -1.92935400	          0.00000000	          0.00000000	          0.00000000	          0.00000000	          0.63659800	          0.00000000	         -0.32331900	          0.00000000	          0.00000000	          0.00000000	
          0.32450000	         13.17828300	        529.96780000	        -53.09756500	          0.28156400	          0.00600000	         -0.13910200	          0.00000000	         -1.94074100	          0.00000000	          0.00000000	          0.00000000	          0.00000000	          0.63659800	          0.00000000	         -0.32331900	          0.00000000	          0.00000000	          0.00000000	
          0.32500000	         13.38371300	        530.74301300	        -53.06973700	          0.28169400	          0.00600000	         -0.13918800	          0.00000000	         -1.95211300	          0.00000000	          0.00000000	          0.00000000	          0.00000000	          0.63659800	          0.00000000	         -0.32331900	          0.00000000	          0.00000000	          0.00000000	
          0.32550000	         13.59016900	        531.52109100	        -53.04154800	          0.28182400	          0.00600000	         -0.13927400	          0.00000000	         -1.96347000	          0.00000000	          0.00000000	          0.00000000	          0.00000000	          0.63659800	          0.00000000	         -0.32331900	          0.00000000	          0.00000000	          0.00000000	
          0.32600000	         13.79765600	        532.30197700	        -53.01299900	          0.28195400	          0.00600000	         -0.13936000	          0.00000000	         -1.97481100	          0.00000000	          0.00000000	          0.00000000	          0.00000000	          0.63659800	          0.00000000	         -0.32331900	          0.00000000	          0.00000000	          0.00000000	
